<svg width="31" height="22" viewBox="0 0 31 22" fill="none" xmlns="http://www.w3.org/2000/svg">
<path d="M17.0416 6.41667H1.62492C0.777002 6.41667 0.083252 7.11042 0.083252 7.95833C0.083252 8.80625 0.777002 9.5 1.62492 9.5H17.0416C17.8895 9.5 18.5833 8.80625 18.5833 7.95833C18.5833 7.11042 17.8895 6.41667 17.0416 6.41667ZM17.0416 0.25H1.62492C0.777002 0.25 0.083252 0.94375 0.083252 1.79167C0.083252 2.63958 0.777002 3.33333 1.62492 3.33333H17.0416C17.8895 3.33333 18.5833 2.63958 18.5833 1.79167C18.5833 0.94375 17.8895 0.25 17.0416 0.25ZM24.7499 12.5833V7.95833C24.7499 7.11042 24.0562 6.41667 23.2083 6.41667C22.3603 6.41667 21.6666 7.11042 21.6666 7.95833V12.5833H17.0416C16.1937 12.5833 15.4999 13.2771 15.4999 14.125C15.4999 14.9729 16.1937 15.6667 17.0416 15.6667H21.6666V20.2917C21.6666 21.1396 22.3603 21.8333 23.2083 21.8333C24.0562 21.8333 24.7499 21.1396 24.7499 20.2917V15.6667H29.3749C30.2228 15.6667 30.9166 14.9729 30.9166 14.125C30.9166 13.2771 30.2228 12.5833 29.3749 12.5833H24.7499ZM1.62492 15.6667H10.8749C11.7228 15.6667 12.4166 14.9729 12.4166 14.125C12.4166 13.2771 11.7228 12.5833 10.8749 12.5833H1.62492C0.777002 12.5833 0.083252 13.2771 0.083252 14.125C0.083252 14.9729 0.777002 15.6667 1.62492 15.6667Z" fill="#C7C5D0"/>
</svg>
