<svg width="24" height="22" viewBox="0 0 24 22" fill="none" xmlns="http://www.w3.org/2000/svg">
<g filter="url(#filter0_di_4_5)">
<path d="M4.99999 2.75484C4.99999 3.60287 5.59239 4.31783 6.17663 4.9325C6.27565 5.03667 6.36746 5.14826 6.4512 5.2666C6.80984 5.77346 7.00244 6.37909 7.00244 7C7.00244 7.62091 6.80984 8.22654 6.4512 8.7334C6.36746 8.85174 6.27564 8.96333 6.17663 9.0675C5.59239 9.68217 4.99999 10.3971 4.99999 11.2452L4.99999 19C4.99999 19.5523 4.55227 20 3.99999 20C3.4477 20 2.99999 19.5523 2.99999 19L2.99999 11.2452C2.99999 10.3971 2.40759 9.68217 1.82335 9.0675C1.72433 8.96333 1.63251 8.85174 1.54878 8.7334C1.19013 8.22654 0.997533 7.62091 0.997533 7C0.997534 6.37909 1.19013 5.77346 1.54878 5.2666C1.63251 5.14826 1.72433 5.03667 1.82335 4.9325C2.40759 4.31783 2.99999 3.60287 2.99999 2.75484L2.99999 1C2.99999 0.447715 3.4477 -7.67342e-07 3.99999 -7.43201e-07C4.55227 -7.1906e-07 4.99999 0.447715 4.99999 0.999999L4.99999 2.75484ZM12 8.75484C12 9.60287 12.5924 10.3178 13.1766 10.9325C13.2756 11.0367 13.3675 11.1483 13.4512 11.2666C13.8098 11.7735 14.0024 12.3791 14.0024 13C14.0024 13.6209 13.8098 14.2265 13.4512 14.7334C13.3675 14.8517 13.2756 14.9633 13.1766 15.0675C12.5924 15.6822 12 16.3971 12 17.2452L12 19C12 19.5523 11.5523 20 11 20C10.4477 20 9.99999 19.5523 9.99999 19L9.99999 17.2452C9.99999 16.3971 9.40759 15.6822 8.82335 15.0675C8.72433 14.9633 8.63251 14.8517 8.54878 14.7334C8.19013 14.2265 7.99754 13.6209 7.99754 13C7.99754 12.3791 8.19013 11.7735 8.54878 11.2666C8.63251 11.1483 8.72433 11.0367 8.82335 10.9325C9.40759 10.3178 9.99999 9.60287 9.99999 8.75484L9.99999 0.999998C9.99999 0.447714 10.4477 -4.61362e-07 11 -4.37221e-07C11.5523 -4.1308e-07 12 0.447715 12 1L12 8.75484ZM19 2.75484C19 3.60287 19.5924 4.31783 20.1766 4.9325C20.2756 5.03667 20.3675 5.14826 20.4512 5.2666C20.8098 5.77346 21.0024 6.37909 21.0024 7C21.0024 7.62091 20.8098 8.22654 20.4512 8.7334C20.3675 8.85174 20.2756 8.96333 20.1766 9.0675C19.5924 9.68217 19 10.3971 19 11.2452L19 19C19 19.5523 18.5523 20 18 20C17.4477 20 17 19.5523 17 19L17 11.2452C17 10.3971 16.4076 9.68217 15.8233 9.0675C15.7243 8.96333 15.6325 8.85174 15.5488 8.7334C15.1901 8.22654 14.9975 7.62091 14.9975 7C14.9975 6.37909 15.1901 5.77346 15.5488 5.2666C15.6325 5.14826 15.7243 5.03667 15.8233 4.9325C16.4076 4.31783 17 3.60287 17 2.75484L17 1C17 0.447716 17.4477 -1.55382e-07 18 -1.31241e-07C18.5523 -1.071e-07 19 0.447715 19 1L19 2.75484Z" fill="#C7C5D0"/>
</g>
<defs>
<filter id="filter0_di_4_5" x="0.997559" y="0" width="22.0049" height="22" filterUnits="userSpaceOnUse" color-interpolation-filters="sRGB">
<feFlood flood-opacity="0" result="BackgroundImageFix"/>
<feColorMatrix in="SourceAlpha" type="matrix" values="0 0 0 0 0 0 0 0 0 0 0 0 0 0 0 0 0 0 127 0" result="hardAlpha"/>
<feOffset dx="1" dy="1"/>
<feGaussianBlur stdDeviation="0.5"/>
<feColorMatrix type="matrix" values="0 0 0 0 1 0 0 0 0 1 0 0 0 0 1 0 0 0 1 0"/>
<feBlend mode="normal" in2="BackgroundImageFix" result="effect1_dropShadow_4_5"/>
<feBlend mode="normal" in="SourceGraphic" in2="effect1_dropShadow_4_5" result="shape"/>
<feColorMatrix in="SourceAlpha" type="matrix" values="0 0 0 0 0 0 0 0 0 0 0 0 0 0 0 0 0 0 127 0" result="hardAlpha"/>
<feOffset dx="1" dy="1"/>
<feGaussianBlur stdDeviation="0.5"/>
<feComposite in2="hardAlpha" operator="arithmetic" k2="-1" k3="1"/>
<feColorMatrix type="matrix" values="0 0 0 0 0 0 0 0 0 0 0 0 0 0 0 0 0 0 0.1 0"/>
<feBlend mode="normal" in2="shape" result="effect2_innerShadow_4_5"/>
</filter>
</defs>
</svg>
