<svg width="19" height="20" viewBox="0 0 19 20" fill="none" xmlns="http://www.w3.org/2000/svg">
<path d="M15.3999 12.4C17.3919 12.4 18.9999 14.008 18.9999 16C18.9999 17.992 17.3919 19.6 15.3999 19.6C13.4079 19.6 11.7999 17.992 11.7999 16C11.7999 15.712 11.8359 15.448 11.9079 15.172L6.6519 12.412C5.9919 13.144 5.0559 13.6 3.9999 13.6C2.0079 13.6 0.399902 11.992 0.399902 10C0.399902 8.00802 2.0079 6.40002 3.9999 6.40002C5.0559 6.40002 5.9919 6.86802 6.6519 7.58802L11.9079 4.82802C11.8359 4.55202 11.7999 4.28802 11.7999 4.00002C11.7999 2.00802 13.4079 0.400024 15.3999 0.400024C17.3919 0.400024 18.9999 2.00802 18.9999 4.00002C18.9999 5.99202 17.3919 7.60002 15.3999 7.60002C14.3439 7.60002 13.4079 7.13202 12.7479 6.41202L7.4919 9.17202C7.63724 9.71446 7.63724 10.2856 7.4919 10.828L12.7479 13.588C13.4079 12.856 14.3439 12.4 15.3999 12.4Z" fill="#C7C5D0"/>
</svg>
